<?xml version="1.0" encoding="UTF-8"?>
<svg id="_레이어_1" data-name="레이어 1" xmlns="http://www.w3.org/2000/svg" version="1.1" viewBox="0 0 112 105">
  <defs>
    <style>
      .cls-1 {
        fill: #ff9c50;
      }

      .cls-1, .cls-2, .cls-3, .cls-4, .cls-5 {
        stroke-width: 0px;
      }

      .cls-2 {
        fill: #373737;
      }

      .cls-3 {
        fill: #ffb059;
      }

      .cls-4 {
        fill: #fff;
      }

      .cls-5 {
        fill: #c2db41;
      }
    </style>
  </defs>
  <g>
    <g>
      <path class="cls-1" d="M96.7,44.4c0,22.3-21.1,40.4-47.2,40.4S2.3,66.7,2.3,44.4,23.4,4,49.5,4s47.2,18.1,47.2,40.4Z"/>
      <path class="cls-2" d="M49.5,87.3C22.1,87.3-.2,68.1-.2,44.4S22.1,1.5,49.5,1.5s49.7,19.3,49.7,42.9-22.3,42.9-49.7,42.9ZM49.5,6.5C24.8,6.5,4.8,23.5,4.8,44.4s20.1,37.9,44.7,37.9,44.7-17,44.7-37.9S74.2,6.5,49.5,6.5Z"/>
    </g>
    <path class="cls-3" d="M89.8,39.4c0,17.6-18.1,31.9-40.4,31.9S9,57,9,39.4,27.1,7.5,49.4,7.5s40.4,14.3,40.4,31.9Z"/>
    <g>
      <path class="cls-5" d="M37.3,12c-1.3-1.1-5.8-5-2.6-6.3,2.4-1.1,5.8.8,8,1.6.3-1,.2-1.7.9-2.6.9-1,2.1-1.6,3.3-2.1,2-.8,2.7,0,4,1.5.7.8,1.4,1.6,1.6,2.6,1.5-1.5,3.1-1.6,5.2-1.7,2-.2,3.9,0,6-.2.8,0,2-.2,2.7.2,3.3,1.6-.9,4.9-2.4,5.9.8,1.6,3.8,3.5,3.8,5.4s-2.3,1.9-3.6,2c-1.7.2-8.1-1.5-8.7-.3-.3.5.3,1.6.5,2.1.3,1.1.5,2.3,0,3.5-.6,1.4-1.7,2-3.2,1.6-3.3-.7-3.7-3.5-6-5.1-1.3-.9-1.6,0-3.2.7-1.2.7-2.6,1.3-3.9,1.7-3.1.9-6.2.3-7.9-1.2-1.7-1.6,5.4-9.3,5.4-9.3Z"/>
      <path class="cls-2" d="M53.6,27.2c-.4,0-.8,0-1.2-.1-2.8-.5-4.1-2.3-5.1-3.7-.5-.6-.9-1.2-1.5-1.7,0,0,0,0,0,0-.3.2-.7.5-1.1.7-1.6.9-3,1.5-4.3,1.9-1.2.3-2.3.5-3.5.5-2.5,0-4.7-.8-6.3-2.2-.4-.4-.9-1-.9-2-.1-2.3,2.6-5.9,4.8-8.6-2.2-2.1-3.1-4-2.9-5.6.1-.7.6-2,2.4-2.7.7-.3,1.5-.5,2.4-.5,1.7,0,3.5.6,5,1.2.2-.4.4-.8.8-1.2,1.1-1.3,2.7-2.1,4-2.7.8-.3,1.5-.5,2.1-.5,1.9,0,3.1,1.2,4.1,2.3h0c.3.4.6.8.9,1.2,1.4-.6,2.9-.8,4.4-.8,1.2,0,2.4-.1,3.7-.1.8,0,1.6,0,2.3,0,.2,0,.4,0,.6,0,.3,0,.7,0,1,0,.8,0,1.5.1,2.1.4,1.9.9,2.3,2.3,2.3,3.1.2,1.9-1.3,3.7-2.8,5,0,0,.1.2.2.2,1.3,1.4,2.7,2.9,2.7,4.8s-1.8,3.7-5.5,4c0,0-.2,0-.4,0-.8,0-2-.2-3.3-.4-.9-.1-1.9-.3-2.8-.4.3,1.2.7,3-.1,4.8-.8,1.8-2.3,2.9-4.2,2.9ZM45.9,17.6c.7,0,1.4.2,2.1.8,1.1.8,1.9,1.8,2.5,2.6,1,1.3,1.5,1.9,2.7,2.1.2,0,.3,0,.4,0,.2,0,.3,0,.6-.5.3-.6,0-1.4-.1-2.2,0,0,0-.1-.1-.3-.3-.8-.8-2.1-.2-3.3.8-1.5,2.6-1.5,3.3-1.5,1.2,0,2.8.2,4.3.4,1.1.2,2.2.3,2.7.3,0,0,.1,0,.2,0,.8,0,1.3-.1,1.6-.2-.3-.5-1.1-1.4-1.5-1.8-.8-.8-1.5-1.6-1.9-2.5-.4-.9-.2-2,.7-2.5,1.4-.9,2.3-1.9,2.6-2.5,0,0,0,0,0,0,0,0,0,0-.3,0s-.5,0-.7,0c-.3,0-.6,0-.8,0-.8,0-1.6,0-2.4,0-1.2,0-2.3,0-3.4.1-2,0-3,.2-4,1.2-.5.5-1.2.7-1.9.5-.7-.2-1.2-.7-1.4-1.4-.1-.6-.7-1.2-1.2-1.9h0c-.4-.4-1-1.1-1.1-1.1s-.2,0-.6.2c-.8.4-1.9.9-2.5,1.6-.1.2-.2.3-.3.8,0,.3-.1.7-.3,1.2-.2.5-.6.9-1,1.2-.5.2-1.1.2-1.6,0-.4-.1-.8-.3-1.3-.5-1.4-.6-3.1-1.3-4.3-1.3s-.5,0-.6,0c.3.5,1.1,1.6,2.9,3,.4.4.7.9.7,1.4,0,.5-.2,1.1-.5,1.5-2.3,2.6-4.5,5.5-5,6.8,1.3.8,3.5,1,5.5.4,1-.3,2.2-.8,3.5-1.6.3-.2.6-.4.8-.5.6-.4,1.3-.9,2.3-.9Z"/>
    </g>
    <path class="cls-2" d="M19.6,30.2c0,1-.8,1.7-1.8,1.7s-1.8-.8-1.8-1.7.8-1.7,1.8-1.7,1.8.8,1.8,1.7Z"/>
    <path class="cls-2" d="M46.6,63.8c0,1-.8,1.7-1.8,1.7s-1.8-.8-1.8-1.7.8-1.7,1.8-1.7,1.8.8,1.8,1.7Z"/>
    <path class="cls-2" d="M48.4,37.6c0,1-.8,1.7-1.8,1.7s-1.8-.8-1.8-1.7.8-1.7,1.8-1.7,1.8.8,1.8,1.7Z"/>
    <path class="cls-2" d="M73.9,51.8c0,1-.8,1.7-1.8,1.7s-1.8-.8-1.8-1.7.8-1.7,1.8-1.7,1.8.8,1.8,1.7Z"/>
    <path class="cls-2" d="M82.3,33.6c0,1-.8,1.7-1.8,1.7s-1.8-.8-1.8-1.7.8-1.7,1.8-1.7,1.8.8,1.8,1.7Z"/>
    <path class="cls-2" d="M29.3,44.4c0,1-.8,1.7-1.8,1.7s-1.8-.8-1.8-1.7.8-1.7,1.8-1.7,1.8.8,1.8,1.7Z"/>
    <g>
      <path class="cls-5" d="M53.6,10.6c0,1.7-2.3,3.1-5.2,3.1s-5.2-1.4-5.2-3.1,2.3-3.1,5.2-3.1,5.2,1.4,5.2,3.1Z"/>
      <path class="cls-2" d="M48.4,15.6c-4.1,0-7.2-2.2-7.2-5.1s3.1-5.1,7.2-5.1,7.2,2.2,7.2,5.1-3.1,5.1-7.2,5.1ZM48.4,9.5c-2,0-3.1.8-3.2,1.1,0,.2,1.2,1,3.2,1s3.1-.8,3.2-1.1c0-.2-1.2-1-3.2-1Z"/>
    </g>
  </g>
  <g>
    <g>
      <g>
        <path class="cls-4" d="M109.5,74c0,11.4-10.2,20.7-22.7,20.7s-22.7-9.2-22.7-20.7,9.7-4.4,22.3-4.4,23.2-7,23.2,4.4Z"/>
        <path class="cls-2" d="M86.7,97.2c-13.9,0-25.2-10.4-25.2-23.2s2.6-9,7.7-9,4.2.4,6.8.9c3.1.6,6.6,1.2,10.3,1.2s7.2-.7,10.4-1.2c2.7-.5,5.1-.9,7.2-.9,5.4,0,8.1,3,8.1,9,0,12.8-11.3,23.2-25.2,23.2ZM69.3,70c-1.6,0-2.7,0-2.7,4,0,10,9.1,18.2,20.2,18.2s20.2-8.1,20.2-18.2-1.3-4-3.1-4-3.8.4-6.3.8c-3.4.6-7.2,1.3-11.3,1.3s-7.9-.7-11.2-1.3c-2.3-.4-4.3-.8-5.8-.8Z"/>
      </g>
      <path class="cls-1" d="M106.8,74c0,8.1-9,14.6-20.1,14.6s-20.1-6.5-20.1-14.6,8.6-3.1,19.7-3.1,20.5-5,20.5,3.1Z"/>
      <path class="cls-4" d="M75.4,78.1c-.1.4-.5.7-1,.6h0c-.4,0-.7-.5-.6-.9l1.3-5c.1-.4.5-.7,1-.6h0c.4.1.7.5.6.9l-1.3,5Z"/>
      <path class="cls-4" d="M84.8,81c0,.6-.6,1-1.1.9h0c-.6,0-1-.5-1-1.1l.5-6.9c0-.6.6-1,1.1-.9h0c.6,0,1,.5,1,1.1l-.5,6.9Z"/>
      <path class="cls-4" d="M93.1,80.8c0,.6-.3,1.1-.9,1.2h0c-.6,0-1.1-.3-1.2-.9l-1-6.8c0-.6.3-1.1.9-1.2h0c.6,0,1.1.3,1.2.9l1,6.8Z"/>
      <path class="cls-4" d="M100.9,76.1c.2.3,0,.7-.3.9h0c-.3.2-.8,0-1-.3l-2.3-4c-.2-.3,0-.7.3-.9h0c.3-.2.8,0,1,.3l2.3,4Z"/>
    </g>
    <g>
      <g>
        <path class="cls-4" d="M97.5,85.9c-2.3,11.2-14.2,18.3-26.5,16-12.3-2.4-20.4-13.4-18-24.5,2.3-11.2,10.4-2.4,22.7,0,12.3,2.4,24.2-2.5,21.8,8.7Z"/>
        <path class="cls-2" d="M75.8,104.8c-1.7,0-3.5-.2-5.2-.5-6.9-1.3-13-5.3-16.7-10.8-3.3-5-4.5-10.9-3.3-16.7,1-5,3.5-7.6,7.4-7.6s5.3,1.1,8.5,2.4c2.9,1.2,6.2,2.5,9.8,3.2,3.6.7,7.2.7,10.4.8,5.3,0,9.8,0,12.2,3.1,1.5,1.8,1.8,4.4,1.1,7.7-2.2,10.7-12.4,18.4-24.2,18.4ZM57.9,74.3c-.7,0-1.7,0-2.5,3.6-.9,4.4,0,9,2.6,12.9,3,4.5,7.9,7.6,13.5,8.7,1.4.3,2.8.4,4.3.4,9.5,0,17.6-6.1,19.3-14.4.4-1.8.3-3-.1-3.6-.9-1.2-4.7-1.2-8.4-1.3-3.4,0-7.3,0-11.3-.8-4.1-.8-7.6-2.2-10.7-3.4-2.7-1.1-5.1-2-6.6-2Z"/>
      </g>
      <path class="cls-1" d="M94.9,85.4c-1.7,7.9-11.8,12.6-22.7,10.5-10.9-2.1-18.3-10.2-16.7-18.1,1.7-7.9,9.1-1.4,19.9.7,10.9,2.1,21.1-1,19.4,6.9Z"/>
      <path class="cls-4" d="M63.3,83.5c-.2.4-.7.5-1.1.4h0c-.4-.2-.6-.6-.4-1l2.3-4.7c.2-.4.7-.5,1.1-.4h0c.4.2.6.6.4,1l-2.3,4.7Z"/>
      <path class="cls-4" d="M71.9,88.2c-.2.5-.7.9-1.3.7h0c-.6-.2-.9-.7-.7-1.3l1.9-6.7c.2-.5.7-.9,1.3-.7h0c.6.2.9.7.7,1.3l-1.9,6.7Z"/>
      <path class="cls-4" d="M80.1,89.5c0,.6-.5,1-1.1,1h0c-.6,0-1-.5-1-1.1l.4-6.9c0-.6.5-1,1.1-1h0c.6,0,1,.5,1,1.1l-.4,6.9Z"/>
      <path class="cls-4" d="M88.8,86.4c.1.4,0,.7-.5.8h0c-.4.1-.8,0-.9-.4l-1.4-4.3c-.1-.4,0-.7.5-.8h0c.4-.1.8,0,.9.4l1.4,4.3Z"/>
    </g>
  </g>
</svg>